<svg xmlns="http://www.w3.org/2000/svg" xmlns:xlink="http://www.w3.org/1999/xlink" width="500" zoomAndPan="magnify" viewBox="0 0 375 374.999991" height="500" preserveAspectRatio="xMidYMid meet" version="1.0"><defs><g/><clipPath id="id1"><path d="M 132 173 L 218 173 L 218 190.414062 L 132 190.414062 Z M 132 173 " clip-rule="nonzero"/></clipPath><clipPath id="id2"><path d="M 112.5 141 L 262.5 141 L 262.5 172 L 112.5 172 Z M 112.5 141 " clip-rule="nonzero"/></clipPath></defs><g fill="rgb(100%, 100%, 100%)" fill-opacity="1"><g transform="translate(85.890687, 223.99576)"><g><path d="M 14.378906 -20.023438 C 11.109375 -16.152344 3.8125 -18.3125 2.914062 -13.691406 C 2.402344 -11.046875 4.894531 -9.1875 7.625 -9.605469 C 8.316406 -9.878906 8.738281 -11.109375 8.464844 -11.707031 C 7.566406 -11.980469 7.445312 -12.730469 7.6875 -13.570312 C 8.226562 -15.550781 11.4375 -14.742188 13.058594 -16.632812 C 12.371094 -14.652344 11.769531 -12.519531 11.136719 -10.539062 C 9.789062 -6.15625 9.007812 -2.492188 7.414062 -2.460938 C 6.15625 -2.433594 5.855469 -4.351562 7.144531 -5.703125 C 7.207031 -6.753906 5.703125 -7.746094 4.625 -7.746094 C 0.210938 -6.875 0.511719 0.332031 6.996094 0.269531 C 12.757812 0.238281 13.691406 -3.300781 15.429688 -8.496094 C 17.351562 -14.171875 18.34375 -17.324219 19.335938 -19.996094 C 18.765625 -20.835938 15.3125 -20.804688 14.378906 -20.023438 Z M 14.378906 -20.023438 "/></g></g></g><g fill="rgb(100%, 100%, 100%)" fill-opacity="1"><g transform="translate(104.828893, 223.99576)"><g><path d="M 22.878906 -20.777344 C 20.234375 -20.804688 17.683594 -18.765625 16.210938 -16.601562 C 16.480469 -17.324219 17.113281 -19.15625 17.351562 -19.90625 C 16.992188 -20.804688 14.082031 -20.894531 13.210938 -20.234375 C 9.878906 -16.183594 2.582031 -18.34375 1.589844 -13.78125 C 1.019531 -11.167969 3.511719 -9.1875 6.246094 -9.605469 C 7.117188 -9.726562 7.566406 -11.46875 7.117188 -11.679688 C 6.363281 -12.039062 6.035156 -12.488281 6.304688 -13.601562 C 6.753906 -15.550781 10.117188 -14.710938 11.800781 -16.691406 C 9.789062 -10.539062 8.226562 -4.832031 6.933594 -0.75 C 7.175781 0.539062 11.378906 0.601562 11.769531 -0.390625 C 12.039062 -1.050781 12.488281 -2.972656 14.441406 -9.246094 C 15.941406 -14.050781 19.035156 -17.742188 21.074219 -17.742188 C 22.398438 -17.742188 21.226562 -14.980469 20.683594 -13.210938 C 18.554688 -6.363281 16.121094 1.921875 21.375 2.460938 C 23.117188 2.640625 24.796875 0 24.167969 -0.8125 C 21.554688 -2.25 23.957031 -6.933594 25.398438 -12.308594 C 26.03125 -14.679688 28.339844 -20.714844 22.878906 -20.777344 Z M 22.878906 -20.777344 "/></g></g></g><g fill="rgb(100%, 100%, 100%)" fill-opacity="1"><g transform="translate(133.070744, 223.99576)"><g><path d="M 18.253906 -15.3125 C 18.882812 -18.675781 16.78125 -20.683594 12.699219 -20.804688 C 8.617188 -20.867188 6.273438 -19.035156 5.972656 -16.0625 C 5.433594 -10.867188 12.128906 -9.15625 11.828125 -5.015625 C 11.738281 -3.421875 10.75 -2.371094 9.097656 -2.433594 C 7.414062 -2.492188 6.035156 -4.382812 6.816406 -7.714844 C 6.574219 -8.765625 3.601562 -9.125 2.820312 -8.257812 C 1.589844 -4.683594 2.160156 0.210938 8.796875 0.269531 C 13.179688 0.300781 16.421875 -1.441406 16.691406 -5.3125 C 17.023438 -10.238281 10.539062 -12.1875 10.839844 -15.792969 C 10.957031 -17.5625 11.980469 -17.984375 12.699219 -18.011719 C 13.839844 -18.011719 14.5625 -17.414062 14.289062 -15.460938 C 14.652344 -14.441406 17.714844 -14.230469 18.253906 -15.3125 Z M 18.253906 -15.3125 "/></g></g></g><g fill="rgb(100%, 100%, 100%)" fill-opacity="1"><g transform="translate(152.999329, 223.99576)"><g><path d="M 14.140625 -20.085938 C 10.867188 -16.242188 3.78125 -18.195312 2.640625 -13.78125 C 1.953125 -11.136719 4.5625 -9.21875 7.296875 -9.636719 C 7.925781 -9.699219 8.527344 -11.347656 8.105469 -11.707031 C 7.355469 -12.070312 7.144531 -12.730469 7.355469 -13.570312 C 7.867188 -15.640625 11.289062 -14.679688 12.851562 -16.691406 C 11.800781 -13.328125 10.628906 -10.269531 9.96875 -7.835938 C 8.527344 -2.402344 10.058594 0.269531 14.109375 0.269531 C 15.703125 0.269531 18.164062 -0.601562 19.605469 -2.523438 C 19.574219 -0.570312 21.046875 0.332031 22.605469 0.332031 C 25.9375 0.332031 28.730469 -3.09375 29.871094 -5.402344 C 30.023438 -5.734375 28.761719 -6.515625 28.582031 -6.125 C 27.199219 -3.300781 25.429688 -2.433594 24.347656 -2.523438 C 23.867188 -2.550781 23.71875 -3.183594 24.019531 -4.324219 C 25.398438 -9.425781 27.5625 -16.601562 28.582031 -19.125 C 28.402344 -20.144531 24.980469 -20.625 23.746094 -19.785156 C 22.757812 -16.78125 21.136719 -11.347656 19.996094 -7.6875 C 18.972656 -4.382812 17.113281 -2.460938 15.550781 -2.460938 C 13.75 -2.460938 13.992188 -4.5625 14.652344 -6.726562 C 16.902344 -14.050781 17.5625 -15.613281 19.003906 -19.90625 C 18.824219 -20.804688 15.160156 -20.835938 14.140625 -20.085938 Z M 14.140625 -20.085938 "/></g></g></g><g fill="rgb(100%, 100%, 100%)" fill-opacity="1"><g transform="translate(182.651736, 223.99576)"><g><path d="M 20.207031 3.242188 C 22.097656 3.453125 23.328125 0.539062 22.335938 -0.539062 C 20.445312 -1.082031 19.425781 -3.390625 18.675781 -5.523438 C 18.375 -6.335938 18.074219 -7.054688 17.625 -7.535156 C 21.4375 -8.617188 23.628906 -10.957031 23.808594 -14.140625 C 24.046875 -18.132812 19.695312 -20.746094 14.5625 -20.777344 C 8.617188 -20.835938 2.582031 -18.613281 2.492188 -13.78125 C 2.460938 -12.429688 3.363281 -11.046875 4.683594 -10.476562 C 5.882812 -10.269531 7.445312 -11.617188 7.476562 -12.339844 C 6.816406 -13.960938 7.414062 -15.371094 8.738281 -16.390625 C 10.058594 -17.414062 12.097656 -18.011719 14.230469 -17.984375 C 17.023438 -17.953125 19.273438 -16.390625 19.125 -14.140625 C 18.914062 -11.078125 16.210938 -9.515625 13.179688 -9.488281 C 14.230469 -12.640625 15.28125 -15.3125 15.792969 -15.941406 C 15.792969 -16.511719 13.121094 -17.171875 12.007812 -16.332031 C 11.109375 -15.613281 10.296875 -13.992188 9.667969 -12.488281 C 8.796875 -10.417969 6.484375 -2.3125 6.003906 -0.8125 C 5.972656 0.480469 9.996094 0.300781 10.597656 -0.511719 C 10.957031 -2.042969 11.707031 -4.472656 12.488281 -6.964844 L 13.539062 -6.964844 C 13.960938 -6.484375 14.199219 -5.734375 14.410156 -5.132812 C 15.460938 -2.132812 16.78125 2.851562 20.207031 3.242188 Z M 20.207031 3.242188 "/></g></g></g><g fill="rgb(100%, 100%, 100%)" fill-opacity="1"><g transform="translate(208.582684, 223.99576)"><g><path d="M 8.015625 0.238281 C 12.1875 0.121094 14.050781 -2.460938 15.882812 -6.785156 L 19.003906 -6.574219 C 18.433594 -4.414062 17.894531 -1.832031 17.714844 -0.628906 C 18.492188 0.421875 21.855469 0.421875 22.726562 -0.660156 C 22.996094 -2.042969 23.507812 -4.5625 24.019531 -6.605469 C 26.238281 -6.816406 28.132812 -7.265625 29.480469 -8.617188 C 29.722656 -8.855469 29.09375 -10.386719 28.371094 -9.789062 C 27.589844 -9.15625 26.03125 -8.855469 24.316406 -8.828125 C 24.886719 -10.929688 26.121094 -15.460938 25.550781 -18.285156 C 24.917969 -21.347656 19.933594 -21.675781 17.171875 -18.644531 C 14.832031 -16.0625 13.902344 -13.71875 12.21875 -9.9375 C 7.296875 -10.175781 3.03125 -8.257812 2.460938 -4.503906 C 2.042969 -1.472656 3.933594 0.359375 8.015625 0.238281 Z M 19.542969 -9.066406 C 18.792969 -9.15625 17.652344 -9.21875 16.902344 -9.308594 C 17.984375 -12.460938 18.972656 -15.011719 20.265625 -16.933594 C 20.984375 -17.984375 21.554688 -17.625 21.464844 -16.8125 C 21.226562 -14.679688 20.324219 -11.800781 19.542969 -9.066406 Z M 8.046875 -2.492188 C 6.996094 -2.460938 6.933594 -3.632812 7.207031 -4.5625 C 7.6875 -6.214844 9.488281 -7.144531 11.136719 -7.085938 C 10.085938 -4.261719 9.21875 -2.550781 8.046875 -2.492188 Z M 8.046875 -2.492188 "/></g></g></g><g fill="rgb(100%, 100%, 100%)" fill-opacity="1"><g transform="translate(237.63486, 223.99576)"><g><path d="M 13.03125 -16.421875 C 10.085938 -13.808594 8.226562 -4.441406 6.90625 -0.8125 C 6.996094 0.480469 10.898438 0.300781 11.527344 -0.480469 C 11.800781 -1.472656 12.488281 -3.8125 13.210938 -6.363281 C 19.933594 -4.921875 23.898438 -8.527344 24.769531 -12.667969 C 25.910156 -18.195312 20.625 -20.746094 15.492188 -20.777344 C 9.546875 -20.835938 3.421875 -18.644531 3.421875 -13.71875 C 3.421875 -12.25 4.261719 -11.046875 5.585938 -10.476562 C 6.785156 -10.238281 8.375 -11.617188 8.40625 -12.277344 C 7.144531 -15.941406 10.988281 -18.042969 15.3125 -17.984375 C 18.105469 -17.953125 20.746094 -16.390625 19.933594 -12.941406 C 19.183594 -9.699219 16.632812 -8.738281 13.960938 -9.007812 C 14.921875 -12.277344 16.242188 -15.3125 16.722656 -15.972656 C 16.574219 -16.601562 14.140625 -17.054688 13.03125 -16.421875 Z M 13.03125 -16.421875 "/></g></g></g><g fill="rgb(100%, 100%, 100%)" fill-opacity="1"><g transform="translate(264.136033, 223.99576)"><g><path d="M 13.03125 -16.421875 C 10.085938 -13.808594 8.226562 -4.441406 6.90625 -0.8125 C 6.996094 0.480469 10.898438 0.300781 11.527344 -0.480469 C 11.800781 -1.472656 12.488281 -3.8125 13.210938 -6.363281 C 19.933594 -4.921875 23.898438 -8.527344 24.769531 -12.667969 C 25.910156 -18.195312 20.625 -20.746094 15.492188 -20.777344 C 9.546875 -20.835938 3.421875 -18.644531 3.421875 -13.71875 C 3.421875 -12.25 4.261719 -11.046875 5.585938 -10.476562 C 6.785156 -10.238281 8.375 -11.617188 8.40625 -12.277344 C 7.144531 -15.941406 10.988281 -18.042969 15.3125 -17.984375 C 18.105469 -17.953125 20.746094 -16.390625 19.933594 -12.941406 C 19.183594 -9.699219 16.632812 -8.738281 13.960938 -9.007812 C 14.921875 -12.277344 16.242188 -15.3125 16.722656 -15.972656 C 16.574219 -16.601562 14.140625 -17.054688 13.03125 -16.421875 Z M 13.03125 -16.421875 "/></g></g></g><g fill="rgb(100%, 100%, 100%)" fill-opacity="1"><g transform="translate(105.304648, 241.801976)"><g><path d="M 7.964844 -7.976562 C 7.53125 -8.074219 6.859375 -7.628906 6.875 -7.273438 C 7.175781 -6.839844 7.332031 -6.335938 7.339844 -5.863281 C 7.359375 -5.054688 7.050781 -4.339844 6.566406 -3.828125 C 5.921875 -3.144531 5.410156 -2.699219 4.898438 -2.0625 C 5.023438 -3.480469 5.101562 -4.890625 5.507812 -6.335938 C 5.410156 -6.605469 4.464844 -6.722656 4.042969 -6.335938 C 3.007812 -5.410156 1.003906 -5.914062 0.636719 -4.589844 C 0.40625 -3.742188 1.253906 -3.085938 2.132812 -3.222656 C 2.410156 -3.261719 2.566406 -3.847656 2.421875 -3.898438 C 2.121094 -4.003906 2.082031 -4.261719 2.171875 -4.515625 C 2.371094 -5.113281 3.511719 -5.015625 3.945312 -5.515625 C 3.414062 -3.144531 3.65625 -2.101562 3.328125 -0.28125 C 3.40625 0.183594 4.496094 0.15625 4.714844 -0.136719 C 5.132812 -1.097656 6.644531 -1.976562 7.5625 -2.960938 C 8.332031 -3.800781 8.777344 -4.917969 8.71875 -5.980469 C 8.679688 -6.703125 8.46875 -7.40625 7.964844 -7.976562 Z M 7.964844 -7.976562 "/></g></g></g><g fill="rgb(100%, 100%, 100%)" fill-opacity="1"><g transform="translate(116.859014, 241.801976)"><g><path d="M 2.902344 -6.597656 C 2.863281 -6.859375 2.324219 -6.800781 2.324219 -6.578125 C 2.335938 -6.257812 2.402344 -5.960938 2.546875 -5.691406 C 2.207031 -5.113281 2.238281 -3.867188 3.019531 -3.53125 C 2.179688 -3.492188 1.226562 -3.019531 1.050781 -1.9375 C 0.789062 -0.300781 2.351562 0.136719 3.53125 0.0859375 C 4.792969 0.0390625 5.863281 -0.589844 6.453125 -1.746094 C 6.492188 -1.824219 6.125 -2.121094 6.039062 -1.96875 C 5.640625 -1.253906 4.8125 -0.789062 3.90625 -0.800781 C 3.355469 -0.808594 2.429688 -0.964844 2.605469 -1.878906 C 2.75 -2.660156 3.75 -2.855469 4.476562 -2.71875 C 4.726562 -2.789062 4.890625 -3.367188 4.714844 -3.558594 C 4.003906 -3.664062 3.65625 -4.089844 3.605469 -4.570312 C 3.859375 -4.332031 4.332031 -4.117188 4.753906 -4.109375 C 5.738281 -4.089844 6.386719 -4.53125 6.421875 -5.382812 C 6.492188 -6.808594 4.050781 -7.070312 3.007812 -6.191406 C 2.941406 -6.328125 2.921875 -6.460938 2.902344 -6.597656 Z M 3.78125 -5.296875 C 4.117188 -5.921875 5.132812 -5.84375 5.101562 -5.382812 C 5.082031 -5.101562 4.898438 -4.957031 4.640625 -4.949219 C 4.378906 -4.929688 4.050781 -5.054688 3.78125 -5.296875 Z M 3.78125 -5.296875 "/></g></g></g><g fill="rgb(100%, 100%, 100%)" fill-opacity="1"><g transform="translate(125.741848, 241.801976)"><g><path d="M 5.390625 -6.519531 C 4.320312 -5.527344 3.511719 -6.65625 1.976562 -6.085938 C 1.535156 -5.921875 1.207031 -5.59375 1.097656 -5.152344 C 1.011719 -4.804688 1.070312 -4.425781 1.253906 -4.097656 C 1.621094 -3.425781 2.875 -3.191406 3.519531 -3.933594 C 3.589844 -4.175781 3.375 -4.523438 3.164062 -4.53125 C 2.863281 -4.359375 2.625 -4.445312 2.566406 -4.648438 C 2.515625 -4.824219 2.585938 -5.042969 2.796875 -5.160156 C 3.480469 -5.535156 4.40625 -4.851562 5.082031 -5.535156 C 4.714844 -4.621094 4.523438 -4.089844 4.222656 -3.183594 C 2.585938 -3.230469 1.503906 -2.574219 1.292969 -1.484375 C 1.148438 -0.761719 1.515625 0.0859375 2.988281 0.078125 C 4.667969 0.0664062 4.996094 -0.761719 5.527344 -2.199219 C 5.863281 -2.160156 6.203125 -2.132812 6.539062 -2.09375 C 6.328125 -1.359375 6.144531 -0.695312 6.007812 -0.242188 C 6.183594 0.15625 7.332031 0.105469 7.609375 -0.183594 C 7.753906 -0.742188 7.949219 -1.398438 8.128906 -2.027344 C 8.71875 -2.074219 9.269531 -2.226562 9.78125 -2.585938 C 9.886719 -2.660156 9.722656 -3.132812 9.5 -3.007812 C 9.132812 -2.808594 8.746094 -2.710938 8.324219 -2.691406 C 8.660156 -3.886719 9.074219 -5.179688 9.441406 -6.203125 C 9.183594 -6.558594 8.121094 -6.539062 7.929688 -6.394531 C 7.550781 -5.488281 7.128906 -4.070312 6.742188 -2.816406 L 5.777344 -2.980469 C 6.328125 -4.660156 6.644531 -5.605469 6.945312 -6.421875 C 6.761719 -6.683594 5.699219 -6.808594 5.390625 -6.519531 Z M 3.964844 -2.246094 C 3.695312 -1.3125 3.453125 -0.78125 3.097656 -0.789062 C 2.796875 -0.800781 2.699219 -1.175781 2.824219 -1.476562 C 2.960938 -1.8125 3.171875 -2.152344 3.964844 -2.246094 Z M 3.964844 -2.246094 "/></g></g></g><g fill="rgb(100%, 100%, 100%)" fill-opacity="1"><g transform="translate(137.874886, 241.801976)"><g><path d="M 4.621094 -6.433594 C 3.570312 -5.1875 1.226562 -5.882812 0.9375 -4.398438 C 0.773438 -3.550781 1.570312 -2.953125 2.449219 -3.085938 C 2.671875 -3.171875 2.808594 -3.570312 2.71875 -3.761719 C 2.429688 -3.847656 2.390625 -4.089844 2.46875 -4.359375 C 2.644531 -4.996094 3.675781 -4.734375 4.195312 -5.34375 C 3.972656 -4.707031 3.78125 -4.023438 3.578125 -3.386719 C 3.144531 -1.976562 2.894531 -0.800781 2.382812 -0.789062 C 1.976562 -0.78125 1.878906 -1.398438 2.296875 -1.832031 C 2.316406 -2.171875 1.832031 -2.488281 1.484375 -2.488281 C 0.0664062 -2.207031 0.164062 0.105469 2.246094 0.0859375 C 4.097656 0.078125 4.398438 -1.0625 4.957031 -2.730469 C 5.574219 -4.550781 5.894531 -5.566406 6.210938 -6.421875 C 6.027344 -6.695312 4.917969 -6.683594 4.621094 -6.433594 Z M 4.621094 -6.433594 "/></g></g></g><g fill="rgb(100%, 100%, 100%)" fill-opacity="1"><g transform="translate(146.458744, 241.801976)"><g><path d="M 5.421875 -6.664062 C 4.386719 -6.722656 3.5 -6.355469 2.808594 -5.75 C 2.625 -6.058594 2.566406 -6.355469 2.507812 -6.550781 C 2.449219 -6.75 1.84375 -6.703125 1.871094 -6.453125 C 1.910156 -6.078125 2.054688 -5.640625 2.304688 -5.226562 C 1.746094 -4.550781 1.40625 -3.683594 1.339844 -2.789062 C 1.175781 -0.753906 2.554688 0.15625 4.058594 0.0976562 C 5.527344 0.0390625 6.386719 -0.597656 7.003906 -1.734375 C 7.058594 -1.832031 6.664062 -2.113281 6.585938 -1.96875 C 6.171875 -1.214844 5.390625 -0.886719 4.890625 -0.808594 C 3.867188 -0.65625 2.914062 -1.070312 2.863281 -2.585938 C 2.84375 -3.105469 2.953125 -3.675781 3.164062 -4.1875 C 4.890625 -3.007812 6.828125 -3.675781 7.058594 -4.996094 C 7.222656 -5.914062 6.636719 -6.597656 5.421875 -6.664062 Z M 5.179688 -5.769531 C 5.476562 -5.757812 5.660156 -5.574219 5.640625 -5.34375 C 5.546875 -4.464844 4.351562 -4.40625 3.570312 -4.898438 C 3.972656 -5.441406 4.484375 -5.796875 5.179688 -5.769531 Z M 5.179688 -5.769531 "/></g></g></g><g fill="rgb(100%, 100%, 100%)" fill-opacity="1"><g transform="translate(155.910614, 241.801976)"><g><path d="M 4.746094 -6.375 C 3.714844 -5.167969 1.398438 -5.875 1.097656 -4.425781 C 0.917969 -3.550781 1.726562 -2.953125 2.605469 -3.085938 C 2.789062 -3.191406 2.914062 -3.570312 2.863281 -3.761719 C 2.574219 -3.878906 2.535156 -4.078125 2.613281 -4.351562 C 2.796875 -4.996094 3.898438 -4.726562 4.398438 -5.390625 C 4.050781 -4.40625 3.808594 -3.441406 3.308594 -1.996094 C 2.410156 -2.460938 0.609375 -2.265625 0.609375 -1.023438 C 0.609375 -0.15625 1.398438 0.0976562 2.171875 0.078125 C 2.914062 0.0585938 3.289062 -0.125 3.675781 -0.328125 C 4.425781 0.789062 5.546875 2.265625 7.011719 1.765625 C 7.332031 1.464844 7.203125 0.589844 6.867188 0.519531 C 6.078125 0.828125 5.527344 0.078125 4.503906 -1.117188 C 5.023438 -2.140625 5.816406 -4.996094 6.347656 -6.375 C 6.203125 -6.636719 5.035156 -6.75 4.746094 -6.375 Z M 2.007812 -1.261719 C 2.132812 -1.4375 2.671875 -1.476562 2.980469 -1.175781 C 2.84375 -0.972656 2.632812 -0.773438 2.304688 -0.789062 C 1.949219 -0.808594 1.863281 -1.070312 2.007812 -1.261719 Z M 2.007812 -1.261719 "/></g></g></g><g fill="rgb(100%, 100%, 100%)" fill-opacity="1"><g transform="translate(164.928477, 241.801976)"><g><path d="M 2.902344 -6.597656 C 2.863281 -6.859375 2.324219 -6.800781 2.324219 -6.578125 C 2.335938 -6.257812 2.402344 -5.960938 2.546875 -5.691406 C 2.207031 -5.113281 2.238281 -3.867188 3.019531 -3.53125 C 2.179688 -3.492188 1.226562 -3.019531 1.050781 -1.9375 C 0.789062 -0.300781 2.351562 0.136719 3.53125 0.0859375 C 4.792969 0.0390625 5.863281 -0.589844 6.453125 -1.746094 C 6.492188 -1.824219 6.125 -2.121094 6.039062 -1.96875 C 5.640625 -1.253906 4.8125 -0.789062 3.90625 -0.800781 C 3.355469 -0.808594 2.429688 -0.964844 2.605469 -1.878906 C 2.75 -2.660156 3.75 -2.855469 4.476562 -2.71875 C 4.726562 -2.789062 4.890625 -3.367188 4.714844 -3.558594 C 4.003906 -3.664062 3.65625 -4.089844 3.605469 -4.570312 C 3.859375 -4.332031 4.332031 -4.117188 4.753906 -4.109375 C 5.738281 -4.089844 6.386719 -4.53125 6.421875 -5.382812 C 6.492188 -6.808594 4.050781 -7.070312 3.007812 -6.191406 C 2.941406 -6.328125 2.921875 -6.460938 2.902344 -6.597656 Z M 3.78125 -5.296875 C 4.117188 -5.921875 5.132812 -5.84375 5.101562 -5.382812 C 5.082031 -5.101562 4.898438 -4.957031 4.640625 -4.949219 C 4.378906 -4.929688 4.050781 -5.054688 3.78125 -5.296875 Z M 3.78125 -5.296875 "/></g></g></g><g fill="rgb(100%, 100%, 100%)" fill-opacity="1"><g transform="translate(173.811312, 241.801976)"><g/></g></g><g fill="rgb(100%, 100%, 100%)" fill-opacity="1"><g transform="translate(179.019598, 241.801976)"><g><path d="M 4.621094 -6.433594 C 3.570312 -5.1875 1.226562 -5.882812 0.9375 -4.398438 C 0.773438 -3.550781 1.570312 -2.953125 2.449219 -3.085938 C 2.671875 -3.171875 2.808594 -3.570312 2.71875 -3.761719 C 2.429688 -3.847656 2.390625 -4.089844 2.46875 -4.359375 C 2.644531 -4.996094 3.675781 -4.734375 4.195312 -5.34375 C 3.972656 -4.707031 3.78125 -4.023438 3.578125 -3.386719 C 3.144531 -1.976562 2.894531 -0.800781 2.382812 -0.789062 C 1.976562 -0.78125 1.878906 -1.398438 2.296875 -1.832031 C 2.316406 -2.171875 1.832031 -2.488281 1.484375 -2.488281 C 0.0664062 -2.207031 0.164062 0.105469 2.246094 0.0859375 C 4.097656 0.078125 4.398438 -1.0625 4.957031 -2.730469 C 5.574219 -4.550781 5.894531 -5.566406 6.210938 -6.421875 C 6.027344 -6.695312 4.917969 -6.683594 4.621094 -6.433594 Z M 4.621094 -6.433594 "/></g></g></g><g fill="rgb(100%, 100%, 100%)" fill-opacity="1"><g transform="translate(187.603456, 241.801976)"><g><path d="M 7.347656 -6.675781 C 6.5 -6.683594 5.679688 -6.027344 5.207031 -5.332031 C 5.296875 -5.566406 5.496094 -6.152344 5.574219 -6.394531 C 5.460938 -6.683594 4.523438 -6.714844 4.242188 -6.5 C 3.171875 -5.199219 0.828125 -5.894531 0.511719 -4.425781 C 0.328125 -3.589844 1.128906 -2.953125 2.007812 -3.085938 C 2.285156 -3.125 2.429688 -3.683594 2.285156 -3.75 C 2.042969 -3.867188 1.9375 -4.011719 2.027344 -4.371094 C 2.171875 -4.996094 3.25 -4.726562 3.789062 -5.363281 C 3.144531 -3.386719 2.644531 -1.554688 2.226562 -0.242188 C 2.304688 0.171875 3.65625 0.191406 3.78125 -0.125 C 3.867188 -0.335938 4.011719 -0.953125 4.640625 -2.96875 C 5.121094 -4.515625 6.113281 -5.699219 6.769531 -5.699219 C 7.195312 -5.699219 6.820312 -4.8125 6.644531 -4.242188 C 5.960938 -2.042969 5.179688 0.617188 6.867188 0.789062 C 7.425781 0.847656 7.964844 0 7.765625 -0.261719 C 6.925781 -0.722656 7.695312 -2.226562 8.160156 -3.953125 C 8.363281 -4.714844 9.105469 -6.65625 7.347656 -6.675781 Z M 7.347656 -6.675781 "/></g></g></g><g fill="rgb(100%, 100%, 100%)" fill-opacity="1"><g transform="translate(199.177117, 241.801976)"><g><path d="M 5.863281 -4.917969 C 6.066406 -6 5.390625 -6.644531 4.078125 -6.683594 C 2.769531 -6.703125 2.015625 -6.113281 1.917969 -5.160156 C 1.746094 -3.492188 3.898438 -2.941406 3.800781 -1.609375 C 3.769531 -1.097656 3.453125 -0.761719 2.921875 -0.78125 C 2.382812 -0.800781 1.9375 -1.40625 2.1875 -2.480469 C 2.113281 -2.816406 1.15625 -2.933594 0.90625 -2.652344 C 0.511719 -1.503906 0.695312 0.0664062 2.824219 0.0859375 C 4.234375 0.0976562 5.277344 -0.464844 5.363281 -1.707031 C 5.46875 -3.289062 3.386719 -3.914062 3.480469 -5.074219 C 3.519531 -5.640625 3.847656 -5.777344 4.078125 -5.785156 C 4.445312 -5.785156 4.679688 -5.59375 4.589844 -4.96875 C 4.707031 -4.640625 5.691406 -4.570312 5.863281 -4.917969 Z M 5.863281 -4.917969 "/></g></g></g><g fill="rgb(100%, 100%, 100%)" fill-opacity="1"><g transform="translate(208.079247, 241.801976)"><g><path d="M 4.542969 -6.453125 C 3.492188 -5.21875 1.214844 -5.84375 0.847656 -4.425781 C 0.625 -3.578125 1.464844 -2.960938 2.34375 -3.097656 C 2.546875 -3.117188 2.738281 -3.644531 2.605469 -3.761719 C 2.363281 -3.878906 2.296875 -4.089844 2.363281 -4.359375 C 2.527344 -5.023438 3.625 -4.714844 4.128906 -5.363281 C 3.789062 -4.28125 3.414062 -3.296875 3.203125 -2.515625 C 2.738281 -0.773438 3.230469 0.0859375 4.53125 0.0859375 C 5.042969 0.0859375 5.835938 -0.191406 6.296875 -0.808594 C 6.289062 -0.183594 6.761719 0.105469 7.261719 0.105469 C 8.332031 0.105469 9.230469 -0.992188 9.597656 -1.734375 C 9.644531 -1.84375 9.238281 -2.09375 9.183594 -1.96875 C 8.738281 -1.0625 8.167969 -0.78125 7.820312 -0.808594 C 7.667969 -0.820312 7.621094 -1.023438 7.714844 -1.390625 C 8.160156 -3.027344 8.855469 -5.332031 9.183594 -6.144531 C 9.125 -6.472656 8.023438 -6.625 7.628906 -6.355469 C 7.3125 -5.390625 6.789062 -3.644531 6.421875 -2.46875 C 6.09375 -1.40625 5.496094 -0.789062 4.996094 -0.789062 C 4.417969 -0.789062 4.496094 -1.464844 4.707031 -2.160156 C 5.429688 -4.515625 5.640625 -5.015625 6.105469 -6.394531 C 6.046875 -6.683594 4.871094 -6.695312 4.542969 -6.453125 Z M 4.542969 -6.453125 "/></g></g></g><g fill="rgb(100%, 100%, 100%)" fill-opacity="1"><g transform="translate(220.106197, 241.801976)"><g><path d="M 6.492188 1.042969 C 7.097656 1.109375 7.496094 0.171875 7.175781 -0.171875 C 6.566406 -0.347656 6.242188 -1.089844 6 -1.773438 C 5.902344 -2.035156 5.804688 -2.265625 5.660156 -2.421875 C 6.886719 -2.769531 7.589844 -3.519531 7.648438 -4.542969 C 7.726562 -5.824219 6.328125 -6.664062 4.679688 -6.675781 C 2.769531 -6.695312 0.828125 -5.980469 0.800781 -4.425781 C 0.789062 -3.992188 1.082031 -3.550781 1.503906 -3.367188 C 1.890625 -3.296875 2.390625 -3.734375 2.402344 -3.964844 C 2.1875 -4.484375 2.382812 -4.9375 2.808594 -5.265625 C 3.230469 -5.59375 3.886719 -5.785156 4.570312 -5.777344 C 5.46875 -5.769531 6.191406 -5.265625 6.144531 -4.542969 C 6.078125 -3.558594 5.207031 -3.058594 4.234375 -3.046875 C 4.570312 -4.058594 4.910156 -4.917969 5.074219 -5.121094 C 5.074219 -5.304688 4.214844 -5.515625 3.859375 -5.246094 C 3.570312 -5.015625 3.308594 -4.496094 3.105469 -4.011719 C 2.824219 -3.347656 2.082031 -0.742188 1.929688 -0.261719 C 1.917969 0.15625 3.210938 0.0976562 3.40625 -0.164062 C 3.519531 -0.65625 3.761719 -1.4375 4.011719 -2.238281 L 4.351562 -2.238281 C 4.484375 -2.082031 4.5625 -1.84375 4.628906 -1.648438 C 4.96875 -0.683594 5.390625 0.917969 6.492188 1.042969 Z M 6.492188 1.042969 "/></g></g></g><g fill="rgb(100%, 100%, 100%)" fill-opacity="1"><g transform="translate(230.937228, 241.801976)"><g><path d="M 2.574219 0.078125 C 3.914062 0.0390625 4.515625 -0.789062 5.101562 -2.179688 L 6.105469 -2.113281 C 5.921875 -1.417969 5.75 -0.589844 5.691406 -0.203125 C 5.941406 0.136719 7.023438 0.136719 7.300781 -0.210938 C 7.386719 -0.65625 7.550781 -1.464844 7.714844 -2.121094 C 8.429688 -2.1875 9.039062 -2.335938 9.472656 -2.769531 C 9.546875 -2.84375 9.347656 -3.335938 9.113281 -3.144531 C 8.863281 -2.941406 8.363281 -2.84375 7.8125 -2.835938 C 7.996094 -3.511719 8.390625 -4.96875 8.207031 -5.875 C 8.003906 -6.859375 6.402344 -6.964844 5.515625 -5.988281 C 4.765625 -5.160156 4.464844 -4.40625 3.925781 -3.191406 C 2.34375 -3.269531 0.972656 -2.652344 0.789062 -1.445312 C 0.65625 -0.472656 1.261719 0.117188 2.574219 0.078125 Z M 6.277344 -2.914062 C 6.039062 -2.941406 5.671875 -2.960938 5.429688 -2.988281 C 5.777344 -4.003906 6.09375 -4.824219 6.511719 -5.441406 C 6.742188 -5.777344 6.925781 -5.660156 6.894531 -5.402344 C 6.820312 -4.714844 6.53125 -3.789062 6.277344 -2.914062 Z M 2.585938 -0.800781 C 2.246094 -0.789062 2.226562 -1.167969 2.316406 -1.464844 C 2.46875 -1.996094 3.046875 -2.296875 3.578125 -2.277344 C 3.242188 -1.371094 2.960938 -0.820312 2.585938 -0.800781 Z M 2.585938 -0.800781 "/></g></g></g><g fill="rgb(100%, 100%, 100%)" fill-opacity="1"><g transform="translate(242.771288, 241.801976)"><g><path d="M 7.347656 -6.675781 C 6.5 -6.683594 5.679688 -6.027344 5.207031 -5.332031 C 5.296875 -5.566406 5.496094 -6.152344 5.574219 -6.394531 C 5.460938 -6.683594 4.523438 -6.714844 4.242188 -6.5 C 3.171875 -5.199219 0.828125 -5.894531 0.511719 -4.425781 C 0.328125 -3.589844 1.128906 -2.953125 2.007812 -3.085938 C 2.285156 -3.125 2.429688 -3.683594 2.285156 -3.75 C 2.042969 -3.867188 1.9375 -4.011719 2.027344 -4.371094 C 2.171875 -4.996094 3.25 -4.726562 3.789062 -5.363281 C 3.144531 -3.386719 2.644531 -1.554688 2.226562 -0.242188 C 2.304688 0.171875 3.65625 0.191406 3.78125 -0.125 C 3.867188 -0.335938 4.011719 -0.953125 4.640625 -2.96875 C 5.121094 -4.515625 6.113281 -5.699219 6.769531 -5.699219 C 7.195312 -5.699219 6.820312 -4.8125 6.644531 -4.242188 C 5.960938 -2.042969 5.179688 0.617188 6.867188 0.789062 C 7.425781 0.847656 7.964844 0 7.765625 -0.261719 C 6.925781 -0.722656 7.695312 -2.226562 8.160156 -3.953125 C 8.363281 -4.714844 9.105469 -6.65625 7.347656 -6.675781 Z M 7.347656 -6.675781 "/></g></g></g><g fill="rgb(100%, 100%, 100%)" fill-opacity="1"><g transform="translate(254.344949, 241.801976)"><g><path d="M 5.421875 -6.664062 C 4.386719 -6.722656 3.5 -6.355469 2.808594 -5.75 C 2.625 -6.058594 2.566406 -6.355469 2.507812 -6.550781 C 2.449219 -6.75 1.84375 -6.703125 1.871094 -6.453125 C 1.910156 -6.078125 2.054688 -5.640625 2.304688 -5.226562 C 1.746094 -4.550781 1.40625 -3.683594 1.339844 -2.789062 C 1.175781 -0.753906 2.554688 0.15625 4.058594 0.0976562 C 5.527344 0.0390625 6.386719 -0.597656 7.003906 -1.734375 C 7.058594 -1.832031 6.664062 -2.113281 6.585938 -1.96875 C 6.171875 -1.214844 5.390625 -0.886719 4.890625 -0.808594 C 3.867188 -0.65625 2.914062 -1.070312 2.863281 -2.585938 C 2.84375 -3.105469 2.953125 -3.675781 3.164062 -4.1875 C 4.890625 -3.007812 6.828125 -3.675781 7.058594 -4.996094 C 7.222656 -5.914062 6.636719 -6.597656 5.421875 -6.664062 Z M 5.179688 -5.769531 C 5.476562 -5.757812 5.660156 -5.574219 5.640625 -5.34375 C 5.546875 -4.464844 4.351562 -4.40625 3.570312 -4.898438 C 3.972656 -5.441406 4.484375 -5.796875 5.179688 -5.769531 Z M 5.179688 -5.769531 "/></g></g></g><g fill="rgb(100%, 100%, 100%)" fill-opacity="1"><g transform="translate(263.796818, 241.801976)"><g><path d="M 2.902344 -6.597656 C 2.863281 -6.859375 2.324219 -6.800781 2.324219 -6.578125 C 2.335938 -6.257812 2.402344 -5.960938 2.546875 -5.691406 C 2.207031 -5.113281 2.238281 -3.867188 3.019531 -3.53125 C 2.179688 -3.492188 1.226562 -3.019531 1.050781 -1.9375 C 0.789062 -0.300781 2.351562 0.136719 3.53125 0.0859375 C 4.792969 0.0390625 5.863281 -0.589844 6.453125 -1.746094 C 6.492188 -1.824219 6.125 -2.121094 6.039062 -1.96875 C 5.640625 -1.253906 4.8125 -0.789062 3.90625 -0.800781 C 3.355469 -0.808594 2.429688 -0.964844 2.605469 -1.878906 C 2.75 -2.660156 3.75 -2.855469 4.476562 -2.71875 C 4.726562 -2.789062 4.890625 -3.367188 4.714844 -3.558594 C 4.003906 -3.664062 3.65625 -4.089844 3.605469 -4.570312 C 3.859375 -4.332031 4.332031 -4.117188 4.753906 -4.109375 C 5.738281 -4.089844 6.386719 -4.53125 6.421875 -5.382812 C 6.492188 -6.808594 4.050781 -7.070312 3.007812 -6.191406 C 2.941406 -6.328125 2.921875 -6.460938 2.902344 -6.597656 Z M 3.78125 -5.296875 C 4.117188 -5.921875 5.132812 -5.84375 5.101562 -5.382812 C 5.082031 -5.101562 4.898438 -4.957031 4.640625 -4.949219 C 4.378906 -4.929688 4.050781 -5.054688 3.78125 -5.296875 Z M 3.78125 -5.296875 "/></g></g></g><g clip-path="url(#id1)"><path fill="rgb(100%, 100%, 100%)" d="M 209.503906 188.144531 L 205.34375 187.9375 L 201.179688 187.773438 C 198.40625 187.671875 195.628906 187.59375 192.855469 187.527344 L 188.695312 187.445312 L 184.53125 187.386719 L 180.371094 187.347656 L 176.210938 187.332031 C 173.4375 187.328125 170.660156 187.332031 167.886719 187.359375 C 166.5 187.367188 165.113281 187.382812 163.726562 187.402344 L 159.566406 187.464844 C 157.109375 187.507812 154.652344 187.566406 152.191406 187.632812 L 152 187 C 151.800781 186.460938 151.613281 185.921875 151.40625 185.386719 C 151.175781 184.863281 150.972656 184.328125 150.714844 183.8125 C 150.449219 183.300781 150.210938 182.78125 149.90625 182.285156 C 149.761719 182.039062 149.621094 181.785156 149.472656 181.542969 L 148.992188 180.820312 C 148.910156 180.699219 148.832031 180.578125 148.75 180.460938 L 148.488281 180.117188 C 148.308594 179.886719 148.140625 179.65625 147.957031 179.433594 C 147.574219 178.996094 147.207031 178.550781 146.789062 178.152344 C 146.390625 177.734375 145.941406 177.363281 145.507812 176.988281 L 144.820312 176.460938 C 144.589844 176.289062 144.347656 176.132812 144.105469 175.972656 C 143.871094 175.804688 143.617188 175.675781 143.371094 175.527344 C 143.125 175.375 142.867188 175.246094 142.613281 175.121094 L 142.230469 174.929688 L 141.835938 174.757812 C 141.574219 174.640625 141.3125 174.527344 141.042969 174.433594 C 140.777344 174.332031 140.511719 174.234375 140.238281 174.15625 C 139.96875 174.066406 139.699219 173.980469 139.421875 173.917969 C 139.148438 173.847656 138.871094 173.785156 138.597656 173.734375 C 138.320312 173.675781 138.042969 173.632812 137.765625 173.59375 C 137.207031 173.507812 136.648438 173.460938 136.09375 173.433594 C 135.535156 173.40625 134.976562 173.421875 134.421875 173.457031 C 133.871094 173.496094 133.316406 173.558594 132.777344 173.679688 C 133.328125 173.65625 133.875 173.679688 134.421875 173.726562 C 134.964844 173.773438 135.503906 173.847656 136.035156 173.945312 C 136.570312 174.042969 137.09375 174.160156 137.613281 174.308594 C 137.871094 174.382812 138.128906 174.457031 138.382812 174.546875 C 138.636719 174.628906 138.886719 174.722656 139.136719 174.824219 C 139.382812 174.917969 139.628906 175.019531 139.871094 175.128906 C 140.117188 175.230469 140.355469 175.347656 140.59375 175.46875 C 140.832031 175.582031 141.0625 175.714844 141.289062 175.847656 L 141.632812 176.042969 L 141.964844 176.257812 C 142.1875 176.402344 142.40625 176.542969 142.613281 176.703125 C 142.824219 176.863281 143.042969 177.003906 143.238281 177.179688 C 143.4375 177.351562 143.644531 177.511719 143.839844 177.683594 L 144.410156 178.21875 C 144.773438 178.59375 145.144531 178.960938 145.46875 179.367188 C 145.808594 179.761719 146.109375 180.1875 146.421875 180.601562 C 146.566406 180.816406 146.703125 181.039062 146.847656 181.257812 L 147.058594 181.585938 C 147.125 181.695312 147.1875 181.8125 147.25 181.925781 L 147.636719 182.605469 L 147.984375 183.308594 C 148.226562 183.765625 148.410156 184.261719 148.617188 184.738281 C 148.820312 185.21875 148.972656 185.726562 149.160156 186.214844 C 149.324219 186.714844 149.46875 187.222656 149.621094 187.722656 L 150 189.261719 L 150.234375 190.214844 L 151.253906 190.238281 C 154.027344 190.289062 156.800781 190.335938 159.578125 190.363281 L 163.738281 190.394531 C 165.125 190.402344 166.511719 190.410156 167.898438 190.402344 C 170.671875 190.410156 173.449219 190.390625 176.222656 190.367188 L 180.382812 190.316406 L 184.542969 190.246094 L 188.707031 190.152344 L 192.867188 190.039062 C 195.640625 189.953125 198.414062 189.851562 201.1875 189.726562 L 205.347656 189.53125 L 209.507812 189.289062 C 210.894531 189.214844 212.28125 189.117188 213.667969 189.015625 C 215.054688 188.925781 216.441406 188.808594 217.828125 188.683594 C 216.441406 188.574219 215.054688 188.46875 213.664062 188.386719 C 212.277344 188.296875 210.890625 188.207031 209.503906 188.144531 " fill-opacity="1" fill-rule="nonzero"/></g><path fill="rgb(100%, 100%, 100%)" d="M 244.515625 176.257812 C 244.324219 176.191406 244.039062 176.082031 243.667969 175.984375 C 242.929688 175.773438 241.851562 175.542969 240.523438 175.449219 C 239.863281 175.402344 239.140625 175.386719 238.375 175.429688 C 237.609375 175.464844 236.804688 175.566406 235.976562 175.71875 C 235.5625 175.804688 235.140625 175.886719 234.726562 176.011719 C 234.515625 176.070312 234.300781 176.121094 234.09375 176.191406 C 233.886719 176.261719 233.675781 176.332031 233.464844 176.402344 C 233.25 176.472656 233.046875 176.558594 232.835938 176.644531 C 232.628906 176.726562 232.417969 176.8125 232.214844 176.902344 C 231.8125 177.105469 231.390625 177.285156 231 177.511719 C 230.605469 177.738281 230.210938 177.960938 229.839844 178.222656 C 229.652344 178.347656 229.460938 178.46875 229.28125 178.601562 C 229.101562 178.738281 228.925781 178.875 228.75 179.015625 C 228.390625 179.277344 228.066406 179.582031 227.746094 179.875 C 227.414062 180.160156 227.128906 180.488281 226.835938 180.792969 C 226.269531 181.414062 225.761719 182.054688 225.335938 182.691406 C 225.230469 182.851562 225.121094 183.007812 225.019531 183.164062 C 224.925781 183.324219 224.832031 183.480469 224.742188 183.636719 C 224.566406 183.949219 224.378906 184.242188 224.238281 184.542969 C 223.953125 185.144531 223.679688 185.683594 223.507812 186.191406 C 223.320312 186.695312 223.160156 187.128906 223.0625 187.503906 C 222.957031 187.871094 222.890625 188.164062 222.835938 188.359375 C 222.789062 188.558594 222.765625 188.664062 222.765625 188.664062 C 222.765625 188.664062 222.832031 188.578125 222.949219 188.410156 C 223.066406 188.242188 223.246094 188 223.449219 187.6875 C 223.648438 187.367188 223.9375 187.011719 224.238281 186.589844 C 224.523438 186.160156 224.90625 185.714844 225.28125 185.21875 C 225.472656 184.96875 225.695312 184.726562 225.914062 184.46875 C 226.019531 184.34375 226.128906 184.210938 226.242188 184.078125 C 226.359375 183.953125 226.480469 183.828125 226.605469 183.699219 C 226.851562 183.441406 227.082031 183.164062 227.359375 182.914062 C 227.636719 182.667969 227.878906 182.382812 228.179688 182.144531 C 228.75 181.632812 229.359375 181.136719 230.003906 180.675781 C 230.167969 180.5625 230.328125 180.445312 230.492188 180.328125 L 231 180.007812 C 231.332031 179.78125 231.6875 179.589844 232.039062 179.390625 C 232.382812 179.183594 232.753906 179.019531 233.109375 178.832031 C 233.476562 178.679688 233.832031 178.488281 234.207031 178.347656 C 234.941406 178.039062 235.691406 177.792969 236.421875 177.566406 C 237.160156 177.355469 237.878906 177.164062 238.578125 177.027344 C 239.273438 176.878906 239.941406 176.773438 240.5625 176.6875 C 241.183594 176.597656 241.761719 176.546875 242.277344 176.496094 C 242.789062 176.460938 243.246094 176.417969 243.621094 176.40625 C 243.992188 176.394531 244.292969 176.378906 244.496094 176.382812 C 244.699219 176.378906 244.808594 176.378906 244.808594 176.378906 C 244.808594 176.378906 244.710938 176.332031 244.515625 176.257812 " fill-opacity="1" fill-rule="nonzero"/><g clip-path="url(#id2)"><path fill="rgb(97.24884%, 97.24884%, 97.24884%)" d="M 222.972656 161.476562 C 190.765625 162.324219 163.769531 152.511719 163.769531 152.511719 C 190.101562 137.503906 216.867188 155.492188 216.867188 155.492188 C 184.113281 130.402344 157.246094 143.707031 141.617188 156.351562 C 131.300781 164.699219 112.628906 162.320312 112.628906 162.320312 C 112.628906 162.320312 124.570312 169.226562 141.660156 166.621094 C 148.636719 165.558594 157.96875 164.289062 169.609375 165.464844 C 186.785156 167.199219 207.917969 169.089844 227.300781 167.558594 C 254.816406 165.382812 261.042969 170.171875 262.371094 171.878906 C 256.003906 161.140625 247.070312 160.84375 222.972656 161.476562 " fill-opacity="1" fill-rule="nonzero"/></g></svg>